<?xml version="1.0" encoding="UTF-8"?>
<svg version="1.1" xmlns="http://www.w3.org/2000/svg" width="62" height="85">
<path d="M0 0 C1.875 1.5625 1.875 1.5625 3 3 C3 3.66 3 4.32 3 5 C3.66 5 4.32 5 5 5 C7.95591182 11.03006012 7.95591182 11.03006012 8.125 14.75 C6.69992938 17.60014125 4.99372933 18.36213155 2.0546875 19.44140625 C-1.28356341 20.34895355 -4.55544172 20.69784576 -8 21 C-8 20.34 -8 19.68 -8 19 C-8.66 19 -9.32 19 -10 19 C-11.01866229 17.34467377 -12.01810813 15.67739862 -13 14 C-15.40545638 12.79727181 -16.94996953 12.89928528 -19.625 12.9375 C-20.44226563 12.94652344 -21.25953125 12.95554687 -22.1015625 12.96484375 C-22.72804688 12.97644531 -23.35453125 12.98804687 -24 13 C-24.24954005 14.43410368 -24.47392642 15.87260072 -24.6875 17.3125 C-24.81511719 18.11300781 -24.94273438 18.91351562 -25.07421875 19.73828125 C-25.22225785 22.02310386 -25.22225785 22.02310386 -23.81494141 23.51098633 C-21.61128345 25.31891071 -19.56625281 26.11531539 -16.88671875 27.0859375 C-15.88576172 27.45976563 -14.88480469 27.83359375 -13.85351562 28.21875 C-11.75569333 28.98488868 -9.65674428 29.74794967 -7.55664062 30.5078125 C-0.02983698 33.32734639 6.3991554 36.27337469 10.3046875 43.7890625 C12.32505572 50.21337943 11.89696015 57.59239756 9.5625 63.875 C6.12647472 70.4335886 0.13158794 74.52782344 -6.75 76.9375 C-16.80899602 79.43275483 -26.7802622 78.87596118 -36 74 C-41.66193951 70.17698101 -46.22015269 65.28988492 -49 59 C-49.5625 55.75 -49.5625 55.75 -49 53 C-47.1329009 50.69724444 -45.64352259 49.32176129 -43 48 C-41.35857459 47.85359499 -39.7101859 47.77903411 -38.0625 47.75 C-37.18722656 47.72421875 -36.31195313 47.6984375 -35.41015625 47.671875 C-33 48 -33 48 -31.3515625 49.19140625 C-29.69200433 51.4121445 -28.51301406 53.6891329 -27.3125 56.1875 C-26.65701172 57.53908203 -26.65701172 57.53908203 -25.98828125 58.91796875 C-25.66214844 59.60503906 -25.33601563 60.29210937 -25 61 C-21.54330418 61.31424507 -19.60098323 61.37956836 -16.625 59.5 C-14.75185888 56.61824443 -14.3542161 54.38524426 -14.5703125 50.953125 C-15.36037988 47.36190965 -17.06077908 46.13237596 -20 44 C-22.75064772 42.63721709 -25.53466459 41.39543008 -28.3515625 40.17578125 C-35.24514922 37.11535411 -40.70006217 32.63320809 -44.078125 25.828125 C-46.11348641 20.46217218 -46.19153056 16.59102803 -45 11 C-44.7525 9.515 -44.7525 9.515 -44.5 8 C-41.44074133 1.88148266 -35.84071643 -2.65437731 -29.4375 -5 C-19.39581032 -7.67084665 -8.84802955 -5.30881773 0 0 Z " fill="#E3D3BA" transform="translate(49,7)"/>
<path d="M0 0 C-1 3 -1 3 -3.0625 4.1875 C-3.701875 4.455625 -4.34125 4.72375 -5 5 C-5.33 4.34 -5.66 3.68 -6 3 C-6.99 3.33 -7.98 3.66 -9 4 C-9 3.34 -9 2.68 -9 2 C-11.475 1.01 -11.475 1.01 -14 0 C-13 -2 -13 -2 -11.3125 -2.6875 C-6.85540117 -3.28981065 -3.71357041 -2.47571361 0 0 Z " fill="#E7D7C2" transform="translate(17,59)"/>
<path d="M0 0 C0.66 0.33 1.32 0.66 2 1 C0.25 5.875 0.25 5.875 -2 7 C-2 7.99 -2 8.98 -2 10 C-3.65 10.33 -5.3 10.66 -7 11 C-6.68232368 5.59950264 -3.80003673 3.47662935 0 0 Z " fill="#C9BB9F" transform="translate(12,6)"/>
<path d="M0 0 C1.31291016 -0.02513672 1.31291016 -0.02513672 2.65234375 -0.05078125 C5.50071002 0.3785511 6.34459647 1.04749343 8.0625 3.3125 C8.75 5.5 8.75 5.5 9.0625 7.3125 C7.0625 7.3125 7.0625 7.3125 5.5 5.9375 C4.0625 4.3125 4.0625 4.3125 3.0625 2.3125 C-0.2375 2.3125 -3.5375 2.3125 -6.9375 2.3125 C-4.42737037 -0.19762963 -3.46944763 0.01528391 0 0 Z " fill="#73695D" transform="translate(10.9375,54.6875)"/>
<path d="M0 0 C1.95216435 1.95216435 2.84826645 3.53199953 4 6 C7.94727588 6.17942163 10.5980513 6.09350689 14 4 C14 5.32 14 6.64 14 8 C9.71 8 5.42 8 1 8 C0.67 5.36 0.34 2.72 0 0 Z " fill="#998875" transform="translate(20,62)"/>
<path d="M0 0 C0.66 0.33 1.32 0.66 2 1 C2.875 3.8125 2.875 3.8125 3 7 C1.0625 9.375 1.0625 9.375 -1 11 C-1.99 10.67 -2.98 10.34 -4 10 C-3.34 9.67 -2.68 9.34 -2 9 C-1.31270746 6.88153715 -1.31270746 6.88153715 -0.875 4.4375 C-0.70742188 3.61121094 -0.53984375 2.78492188 -0.3671875 1.93359375 C-0.24601562 1.29550781 -0.12484375 0.65742188 0 0 Z " fill="#83756A" transform="translate(54,15)"/>
<path d="M0 0 C3.24271506 0.5590888 4.93057424 1.4132178 7 4 C7 4.66 7 5.32 7 6 C7.66 6 8.32 6 9 6 C8.67 6.99 8.34 7.98 8 9 C8 8.34 8 7.68 8 7 C6.68 7.99 5.36 8.98 4 10 C3.34 9.34 2.68 8.68 2 8 C2.66 8 3.32 8 4 8 C3.50168276 4.31245243 2.89932357 2.39509338 0 0 Z " fill="#7F7267" transform="translate(45,6)"/>
<path d="M0 0 C0.886875 0.61875 1.77375 1.2375 2.6875 1.875 C5.46061184 3.65397741 7.9140354 4.91083602 11 6 C11 6.33 11 6.66 11 7 C9.741875 6.87625 8.48375 6.7525 7.1875 6.625 C6.12595703 6.52058594 6.12595703 6.52058594 5.04296875 6.4140625 C3 6 3 6 0 4 C0 2.68 0 1.36 0 0 Z " fill="#917F6F" transform="translate(23,29)"/>
<path d="M0 0 C4.75 0.875 4.75 0.875 7 2 C6.67 2.99 6.34 3.98 6 5 C3.36 4.34 0.72 3.68 -2 3 C-1.34 2.01 -0.68 1.02 0 0 Z " fill="#AEA087" transform="translate(30,16)"/>
<path d="M0 0 C1.32 0.66 2.64 1.32 4 2 C3 5 3 5 0.9375 6.1875 C0.298125 6.455625 -0.34125 6.72375 -1 7 C-0.67 4.69 -0.34 2.38 0 0 Z " fill="#F0DFC8" transform="translate(13,57)"/>
<path d="M0 0 C0.33 0.66 0.66 1.32 1 2 C2.32 1.67 3.64 1.34 5 1 C5 2.98 5 4.96 5 7 C4.236875 6.38125 3.47375 5.7625 2.6875 5.125 C0.00374191 2.94402948 0.00374191 2.94402948 -3 1 C-2.01 0.67 -1.02 0.34 0 0 Z " fill="#BAB298" transform="translate(29,48)"/>
<path d="M0 0 C1.65 0 3.3 0 5 0 C4.01 0.495 4.01 0.495 3 1 C2.31270746 3.11846285 2.31270746 3.11846285 1.875 5.5625 C1.70742188 6.38878906 1.53984375 7.21507812 1.3671875 8.06640625 C1.24601562 8.70449219 1.12484375 9.34257812 1 10 C0.67 10 0.34 10 0 10 C0 6.7 0 3.4 0 0 Z " fill="#9D8B75" transform="translate(22,19)"/>
<path d="M0 0 C1.32 1.32 2.64 2.64 4 4 C2.02 4.66 0.04 5.32 -2 6 C-1.125 1.125 -1.125 1.125 0 0 Z " fill="#BBAF95" transform="translate(7,11)"/>
<path d="" fill="#000000" transform="translate(0,0)"/>
<path d="" fill="#000000" transform="translate(0,0)"/>
<path d="" fill="#000000" transform="translate(0,0)"/>
<path d="" fill="#000000" transform="translate(0,0)"/>
<path d="" fill="#000000" transform="translate(0,0)"/>
<path d="" fill="#000000" transform="translate(0,0)"/>
<path d="" fill="#000000" transform="translate(0,0)"/>
<path d="" fill="#000000" transform="translate(0,0)"/>
<path d="" fill="#000000" transform="translate(0,0)"/>
<path d="" fill="#000000" transform="translate(0,0)"/>
<path d="" fill="#000000" transform="translate(0,0)"/>
</svg>
